{
	"asset":{
		"generator":"Khronos glTF Blender I/O v4.5.47",
		"version":"2.0"
	},
	"scene":0,
	"scenes":[
		{
			"name":"Scene",
			"nodes":[
				0
			]
		}
	],
	"nodes":[
		{
			"mesh":0,
			"name":"duck"
		}
	],
	"materials":[
		{
			"name":"ducky",
			"pbrMetallicRoughness":{
				"baseColorTexture":{
					"index":0
				},
				"metallicFactor":0,
				"roughnessFactor":0.019999999552965164
			}
		}
	],
	"meshes":[
		{
			"name":"duck",
			"primitives":[
				{
					"attributes":{
						"POSITION":0,
						"NORMAL":1,
						"TEXCOORD_0":2
					},
					"indices":3,
					"material":0
				}
			]
		}
	],
	"textures":[
		{
			"sampler":0,
			"source":0
		}
	],
	"images":[
		{
			"mimeType":"image/png",
			"name":"Image_0",
			"uri":"Image_0.png"
		}
	],
	"accessors":[
		{
			"bufferView":0,
			"componentType":5126,
			"count":2280,
			"max":[
				0.0998879000544548,
				0.21728557348251343,
				0.15666499733924866
			],
			"min":[
				-0.08783700317144394,
				-0.0336339995265007,
				-0.11287900060415268
			],
			"type":"VEC3"
		},
		{
			"bufferView":1,
			"componentType":5126,
			"count":2280,
			"type":"VEC3"
		},
		{
			"bufferView":2,
			"componentType":5126,
			"count":2280,
			"type":"VEC2"
		},
		{
			"bufferView":3,
			"componentType":5123,
			"count":12636,
			"type":"SCALAR"
		}
	],
	"bufferViews":[
		{
			"buffer":0,
			"byteLength":27360,
			"byteOffset":0,
			"target":34962
		},
		{
			"buffer":0,
			"byteLength":27360,
			"byteOffset":27360,
			"target":34962
		},
		{
			"buffer":0,
			"byteLength":18240,
			"byteOffset":54720,
			"target":34962
		},
		{
			"buffer":0,
			"byteLength":25272,
			"byteOffset":72960,
			"target":34963
		}
	],
	"samplers":[
		{
			"magFilter":9729,
			"minFilter":9987
		}
	],
	"buffers":[
		{
			"byteLength":98232,
			"uri":"%E9%B8%AD%E5%AD%90.bin"
		}
	]
}
